<?xml version="1.0" encoding="utf-8"?>
<!-- Generator: Adobe Illustrator 19.1.0, SVG Export Plug-In . SVG Version: 6.00 Build 0)  -->
<!DOCTYPE svg PUBLIC "-//W3C//DTD SVG 1.1//EN" "http://www.w3.org/Graphics/SVG/1.1/DTD/svg11.dtd">
<svg version="1.1" id="Layer_1" xmlns="http://www.w3.org/2000/svg" xmlns:xlink="http://www.w3.org/1999/xlink" x="0px" y="0px"
	 width="300px" height="300px" viewBox="0 0 300 300" style="enable-background:new 0 0 300 300;" xml:space="preserve">
<style type="text/css">
	.st0{fill:#AAA592;}
	.st1{fill:#F6F4EC;}
	.st2{fill:#7E7A6C;}
</style>
<path class="st0" d="M135,251.8c-39.9,0-70.2-11.4-89.8-34c-17.9-20.5-25.7-50.1-21.4-81.1C26.5,116,38.5,91.5,54.9,73
	c19.2-21.8,42.5-33.8,65.4-33.8c17.2,0,34,6.6,50,19.5c23.5,19,44.4,29.8,61.3,38.4c32,16.4,53.2,27.3,54.8,75
	c2.6,74.5-49.5,76.3-144,79.6C139.9,251.8,137.4,251.8,135,251.8z"/>
<path class="st1" d="M282.4,172.2c2.4,70-44,72.1-140.1,75.5C46.1,251,20.6,188.6,27.7,137.3c7-51.3,72.5-130.3,140.1-75.5
	C235.4,116.7,280,102.3,282.4,172.2z"/>
<circle class="st0" cx="164" cy="120.7" r="17.2"/>
<g>
	<circle class="st0" cx="167" cy="154.7" r="11.9"/>
	<circle class="st2" cx="166.3" cy="147.8" r="2.8"/>
	<circle class="st2" cx="169.1" cy="153.4" r="2.8"/>
	<circle class="st2" cx="173.9" cy="157.5" r="2.8"/>
	<circle class="st2" cx="167" cy="161.7" r="2.8"/>
	<circle class="st2" cx="160.8" cy="158.9" r="2.8"/>
	<circle class="st2" cx="161.5" cy="152.7" r="2.8"/>
</g>
<g>
	<ellipse class="st0" cx="230.1" cy="197.1" rx="2.8" ry="4.9"/>
	<ellipse class="st0" cx="236.5" cy="214" rx="2.2" ry="3.8"/>
	
		<ellipse transform="matrix(0.9658 -0.2592 0.2592 0.9658 -42.4412 68.2231)" class="st0" cx="237.5" cy="195.1" rx="2.2" ry="3.9"/>
	
		<ellipse transform="matrix(0.9658 -0.2592 0.2592 0.9658 -46.1577 70.0313)" class="st0" cx="242.5" cy="210.1" rx="2.2" ry="3.9"/>
	
		<ellipse transform="matrix(0.7708 -0.6371 0.6371 0.7708 -83.1401 195.0654)" class="st0" cx="229.5" cy="213.1" rx="2.2" ry="3.9"/>
	<ellipse transform="matrix(0.5975 -0.8019 0.8019 0.5975 -73.6796 263.2052)" class="st0" cx="225.3" cy="205" rx="3.2" ry="5.5"/>
	
		<ellipse transform="matrix(0.8808 0.4736 -0.4736 0.8808 123.1305 -92.2308)" class="st0" cx="244.7" cy="198.4" rx="2.8" ry="4.9"/>
	
		<ellipse transform="matrix(0.748 0.6637 -0.6637 0.748 195.6215 -105.0212)" class="st0" cx="236.1" cy="205.1" rx="2.8" ry="4.9"/>
</g>
</svg>
