<?xml version="1.0" encoding="utf-8"?>
<!-- Generator: Adobe Illustrator 19.1.0, SVG Export Plug-In . SVG Version: 6.00 Build 0)  -->
<!DOCTYPE svg PUBLIC "-//W3C//DTD SVG 1.1//EN" "http://www.w3.org/Graphics/SVG/1.1/DTD/svg11.dtd">
<svg version="1.1" id="Layer_1" xmlns="http://www.w3.org/2000/svg" xmlns:xlink="http://www.w3.org/1999/xlink" x="0px" y="0px"
	 width="300px" height="300px" viewBox="0 0 300 300" style="enable-background:new 0 0 300 300;" xml:space="preserve">
<style type="text/css">
	.st0{fill:#AAA592;}
	.st1{fill:#F6F4EC;}
	.st2{fill:#7E7A6C;}
</style>
<path class="st0" d="M229.4,247.2c-6.4,0-12.4-3.3-18.7-6.8c-7.3-4-14.8-8.2-24-8.2c-0.9,0-1.8,0-2.6,0.1
	c-8.2,0.7-14.7,3.3-19.9,5.3c-4.1,1.6-7.3,2.9-10.4,2.9c-9.8,0-10.6-11.7-10.6-25.8c0-11.9-1.9-18.7-5.2-18.7
	c-4.1,0-11.5,5.7-17.4,10.3l-0.7,0.6c-2.5,1.9-5.1,2.9-7.8,2.9c-6.1,0-11.5-5.2-14-13.6c-3.3-11.1-1.1-26.8,11.6-35.2
	c1.3-0.9,2.6-2.1,2.4-2.9c-0.6-2-5.9-5.1-12.4-5.1c-0.2,0-0.4,0-0.6,0c-4.2,0.1-7.9,1.7-12.5,3.6c-7.5,3.1-16.9,7-33,7
	c-1.4,0-2.9,0-4.4-0.1c-11.4-0.5-19.5-3.5-24.6-9.3c-8-9.1-7.5-23.1-5.9-40.5c1.7-19.1,11.2-23.1,18.9-23.1c6.1,0,13.3,2.4,22.7,7.7
	c9.6,5.4,13.5,13,16.7,19.1c2.7,5.2,4.8,9.3,9.6,11.3c1.4,0.6,2.6,0.9,3.6,0.9c1.1,0,1.8-0.4,2.5-1.2c1.8-2.3,2.1-7.7,0.9-12.2
	c-1.2-4.2-0.4-8.3,2.1-11.6c3-3.9,8.1-6.3,13.7-6.3c5.3,0,10.3,2.1,14.1,5.9c4.5,4.6,5.3,10.8,6.2,17.4c1.4,10.4,3.1,22.1,17.8,33.8
	c3.3,2.6,6.2,3.9,8.6,3.9c0,0,0,0,0,0c6.3,0,10.4-9.4,12.3-14.9c2.6-7.6,3.6-15.3,3.8-16.6c0-3.1,0.5-30.5,10.6-58.4
	c1.5-4.1,6-16.6,15.1-16.6c10.6,0,16.7,16.7,18.1,23.1c1.3,6,0.1,13.6-1.1,20.9c-0.7,4.6-2,12.1-1,14c0.2,0,0.5,0,0.8,0
	c2.1,0,5.3-0.6,8.7-1.2c4.6-0.8,9.8-1.8,14.6-1.8c13.3,0,17.1,7.4,17.9,13.7c1.8,13.7-13,19.8-27.2,25.7c-9.5,3.9-19.4,8-25.2,14.1
	c-5.1,5.4-5.7,7.9-5.8,8.5c0.3,0.2,1.5,0.7,4.5,0.7c5,0,12.6-1.5,21.8-4.2c5.7-1.7,9.8-2.5,13.1-2.5c6.9,0,9.7,3.5,12.1,6.7
	c2.8,3.6,6.2,8.1,19.4,10.6c7.7,1.5,12.2,4.4,13.6,9.1c2.8,9.2-8.5,20.4-21.7,33.4c-4.9,4.9-10.1,9.9-14.2,14.7
	C240.9,244.3,235.4,247.2,229.4,247.2z"/>
<path class="st1" d="M212.8,114.8c-8.8-1.3,1.8-25.7-1-38c-2.8-12.3-15.3-34.7-25.6-6c-10.3,28.7-10.3,57.3-10.3,57.3
	s-5.6,50.7-31.2,30.5c-25.5-20.2-14.9-41.9-24.4-51.5s-26.3-3.3-23.1,8c2.5,8.9,0.3,22.7-12.3,17.3c-12.7-5.3-10.3-21.4-26.7-30.6
	c-16.2-9.1-33.3-13.7-35.7,12.2c-2.3,26-2.3,44.3,26.7,45.5c29,1.2,36.7-10.1,49.7-10.5c11.8-0.4,23.8,8.2,13,15.3
	c-20.9,13.8-8.8,50.5,5.5,39.3c14.3-11.1,29.8-23.8,29.8,11c0,37.3,9.2,16,36.6,13.7c27.3-2.3,40.9,28.5,59.3,7.3
	c18.3-21.2,53-45.2,24.6-50.6c-31.6-6-14.2-23.4-42.7-14.9c-28.6,8.5-39.9,4.6-24.6-11.6c15.3-16.2,53.7-18.2,51.4-36.5
	C249.2,103.8,221.6,116.1,212.8,114.8z"/>
<circle class="st0" cx="230" cy="205.7" r="17.2"/>
<g>
	<circle class="st0" cx="198" cy="134.7" r="11.9"/>
	<circle class="st2" cx="197.3" cy="127.8" r="2.8"/>
	<circle class="st2" cx="200.1" cy="133.4" r="2.8"/>
	<circle class="st2" cx="204.9" cy="137.5" r="2.8"/>
	<circle class="st2" cx="198" cy="141.7" r="2.8"/>
	<circle class="st2" cx="191.8" cy="138.9" r="2.8"/>
	<circle class="st2" cx="192.5" cy="132.7" r="2.8"/>
</g>
<g>
	<ellipse class="st0" cx="43.1" cy="123.1" rx="2.8" ry="4.9"/>
	<ellipse class="st0" cx="49.5" cy="140" rx="2.2" ry="3.8"/>
	<ellipse transform="matrix(0.9658 -0.2592 0.2592 0.9658 -29.6526 17.2337)" class="st0" cx="50.5" cy="121.1" rx="2.2" ry="3.9"/>
	<ellipse transform="matrix(0.9658 -0.2592 0.2592 0.9658 -33.369 19.0419)" class="st0" cx="55.5" cy="136.1" rx="2.2" ry="3.9"/>
	<ellipse transform="matrix(0.7708 -0.6371 0.6371 0.7708 -78.8556 58.9753)" class="st0" cx="42.5" cy="139.1" rx="2.2" ry="3.9"/>
	<ellipse transform="matrix(0.5975 -0.8018 0.8018 0.5975 -89.6056 83.4666)" class="st0" cx="38.3" cy="131" rx="3.2" ry="5.5"/>
	<ellipse transform="matrix(0.8808 0.4736 -0.4736 0.8808 65.7889 -12.498)" class="st0" cx="57.7" cy="124.4" rx="2.8" ry="4.9"/>
	<ellipse transform="matrix(0.748 0.6637 -0.6637 0.748 99.3805 0.4441)" class="st0" cx="49.1" cy="131.1" rx="2.8" ry="4.9"/>
</g>
</svg>
