<svg xmlns="http://www.w3.org/2000/svg" width="250" height="205" viewBox="0 0 250 205"><style type="text/css">.st0{fill:#323232;} .st1{fill:#F6F4EC;}</style><path class="st0" d="M0 0v168c0 47.6 35.7 32.3 59.1 26.9 23.4-5.4 49.2-15.7 66.6-15.7s42.6 10.3 66 15.7c23.4 5.4 58.3 20.6 58.3-26.9v-168h-250z"/><path class="st1" d="M50 70.3h-10.1l-2.5 9.9h-7.7l12.4-43.4h6.1l12.5 43.4h-8.1l-2.6-9.9zm-8.5-6.3h7.1l-2.5-10-1-6.8h-.1l-1 6.8-2.5 10zM90.8 57.9l.9-8.2h-.3l-2.3 7.3-7 15.1h-2.6l-7.4-15.1-2.3-7.4h-.4l1.2 8.3v22.3h-7.3v-43.2h7.4l9 18.7 1.5 5.4h.2l1.4-5.5 8.4-18.6h7.3v43.1h-7.7v-22.2zM103.1 58.6c0-7.3 1.2-12.9 3.7-16.7 2.5-3.8 6.3-5.7 11.4-5.7 2.7 0 4.9.5 6.9 1.6 1.9 1 3.5 2.5 4.7 4.5 1.2 1.9 2.1 4.3 2.7 7.1.6 2.8.9 5.9.9 9.3 0 7.3-1.3 12.9-3.8 16.7-2.6 3.8-6.3 5.7-11.4 5.7-2.7 0-5-.5-6.9-1.6-1.9-1-3.5-2.5-4.7-4.5-1.2-1.9-2.1-4.3-2.7-7.1-.5-2.8-.8-5.9-.8-9.3zm8.1 0c0 2.2.1 4.2.4 6.1.2 1.9.7 3.5 1.2 4.8.6 1.4 1.3 2.4 2.2 3.2.9.8 2 1.2 3.3 1.2 2.4 0 4.1-1.2 5.3-3.6 1.2-2.4 1.8-6.3 1.8-11.6 0-2.1-.1-4.1-.4-5.9-.2-1.9-.6-3.5-1.2-4.9-.6-1.4-1.3-2.5-2.2-3.3-.9-.8-2-1.2-3.4-1.2-4.7-.1-7 5-7 15.2zM138 37h21.5v7.1h-13.7v10.6h12.4v7.1h-12.4v11.2h14v7.1h-21.8v-43.1zM188.9 47c0 1.1-.1 2.1-.3 3.2-.2 1-.6 2-1.1 3-.5.9-1.1 1.7-1.9 2.4-.8.7-1.7 1.2-2.9 1.6v.4c1 .2 1.9.6 2.8 1.1.9.5 1.6 1.2 2.3 2 .7.8 1.2 1.9 1.6 3.1.4 1.2.6 2.6.6 4.3 0 2.2-.4 4.1-1.1 5.8-.8 1.6-1.8 2.9-3.1 4-1.3 1-2.8 1.8-4.5 2.3-1.7.5-3.5.7-5.5.7h-2.2c-.9 0-1.9 0-2.9-.1s-2.1-.2-3.2-.3c-1.1-.1-2.1-.3-3.1-.6v-42.6c1.3-.2 3-.5 5-.6 2-.2 4-.3 5.9-.3 1.8 0 3.5.1 5.2.4 1.7.3 3.1.8 4.4 1.6 1.2.8 2.2 1.9 3 3.2.6 1.5 1 3.2 1 5.4zm-15.1 8.3c.4 0 1 0 1.6-.1.6-.1 1.1-.1 1.4-.2 1.2-.5 2.2-1.2 3-2.2.8-1 1.3-2.4 1.3-4 0-1.1-.1-2-.4-2.7s-.7-1.3-1.2-1.8c-.5-.4-1.1-.7-1.7-.9-.7-.2-1.4-.3-2.2-.3-1.7 0-2.9.1-3.6.2v11.9h1.8zm2.1 18.7c1.7 0 3.1-.6 4.2-1.7s1.7-2.7 1.7-4.9c0-1.4-.2-2.4-.6-3.2-.4-.8-.9-1.4-1.5-1.8-.6-.4-1.3-.7-2.1-.8-.8-.1-1.6-.2-2.5-.2h-3.1v12.3c.3.1.9.2 1.7.3h2.2zM211.7 70.3h-10.1l-2.5 9.9h-7.7l12.4-43.4h6.1l12.5 43.4h-8.1l-2.6-9.9zm-8.4-6.3h7.1l-2.5-10-1-6.8h-.2l-1 6.8-2.4 10zM57.9 122.4h-10.2l-2.5 9.9h-7.7l12.5-43.5h6.1l12.5 43.4h-8.1l-2.6-9.8zm-8.5-6.3h7.1l-2.5-10-1-6.8h-.2l-1 6.8-2.4 10zM98.7 110l.9-8.2h-.3l-2.3 7.4-7 15.1h-2.6l-7.4-15.2-2.3-7.4h-.4l1.2 8.3v22.3h-7.3v-43.2h7.4l9 18.7 1.5 5.4h.2l1.4-5.5 8.4-18.5h7.3v43.1h-7.7v-22.3zM112.6 89.1h7.7v43.1h-7.7v-43.1zM139.5 109.9h13.2v19.1c-1.5 1.4-3.3 2.5-5.3 3.1-2 .6-4 1-6 1-2.4 0-4.6-.4-6.6-1.3s-3.6-2.2-5-4c-1.4-1.8-2.4-4.1-3.2-7-.8-2.8-1.1-6.2-1.1-10.1 0-4.1.4-7.6 1.3-10.4.9-2.8 2.1-5.1 3.6-6.9 1.5-1.8 3.2-3.1 5.2-3.9s4.1-1.2 6.3-1.2c2 0 3.8.2 5.4.5 1.6.3 3 .7 4 1.2l-1.6 6.7c-.8-.4-1.8-.7-2.9-.9-1.1-.2-2.4-.4-4-.4-1.4 0-2.7.3-3.9.9-1.2.6-2.1 1.5-2.9 2.7-.8 1.2-1.4 2.8-1.8 4.8-.4 2-.6 4.3-.6 7 0 5.2.8 9.1 2.4 11.5 1.6 2.5 3.6 3.7 6.2 3.7.8 0 1.6-.1 2.4-.4.8-.2 1.4-.6 2-1.2v-8.9l-7.1-1v-4.6zM174.7 122.4h-10.1l-2.5 9.9h-7.7l12.4-43.4h6.1l12.5 43.4h-8.1l-2.6-9.9zm-8.5-6.3h7.1l-2.5-10-1-6.8h-.2l-1 6.8-2.4 10zM203.1 121.1c0-1.3-.4-2.4-1.2-3.4-.8-.9-1.7-1.8-2.9-2.6s-2.4-1.7-3.8-2.5c-1.4-.9-2.6-1.9-3.8-3-1.2-1.1-2.1-2.5-2.9-4.1-.8-1.6-1.2-3.5-1.2-5.7 0-2.1.3-3.9 1-5.3.6-1.5 1.5-2.6 2.6-3.6s2.4-1.6 3.9-2c1.5-.4 3.1-.6 4.8-.6 2.1 0 4 .2 5.8.6 1.8.4 3.3 1 4.5 1.7l-2.4 6.8c-.7-.5-1.7-.9-3.1-1.4-1.4-.4-2.9-.6-4.4-.6-1.6 0-2.8.3-3.7 1-.9.7-1.3 1.6-1.3 2.9 0 1.1.4 2.2 1.2 3 .8.9 1.7 1.7 2.9 2.6 1.2.8 2.4 1.7 3.8 2.6 1.4.9 2.6 1.9 3.8 3.1s2.1 2.5 2.9 4.1c.8 1.6 1.2 3.5 1.2 5.6 0 2.2-.3 4.1-1 5.7s-1.5 2.9-2.7 4-2.6 1.8-4.2 2.4-3.5.8-5.5.8c-2.5 0-4.8-.2-6.7-.7-1.9-.5-3.4-1-4.4-1.7l2.5-7c.8.5 1.9 1 3.4 1.5 1.4.5 3 .7 4.6.7 4.2-.1 6.3-1.7 6.3-4.9z"/></svg>