<?xml version="1.0" encoding="utf-8"?>
<!-- Generator: Adobe Illustrator 19.1.0, SVG Export Plug-In . SVG Version: 6.00 Build 0)  -->
<!DOCTYPE svg PUBLIC "-//W3C//DTD SVG 1.1//EN" "http://www.w3.org/Graphics/SVG/1.1/DTD/svg11.dtd">
<svg version="1.1" id="Layer_1" xmlns="http://www.w3.org/2000/svg" xmlns:xlink="http://www.w3.org/1999/xlink" x="0px" y="0px"
	 width="256px" height="205px" viewBox="0 0 256 205" style="enable-background:new 0 0 256 205;" xml:space="preserve">
<style type="text/css">
	.st0{fill:#323232;}
	.st1{fill:#F6F4EC;}
</style>
<g>
	<path class="st0" d="M2,0c0,0,0,97.9,0,168c0,47.6,35.8,32.3,59.3,26.9c23.5-5.4,49.4-15.7,66.9-15.7s42.8,10.3,66.3,15.7
		c23.5,5.4,58.6,20.6,58.6-26.9c0-70.1,0-168,0-168H2z"/>
	<g>
		<path class="st1" d="M52.2,70.3H42l-2.5,9.9h-7.7l12.5-43.4h6.1L63,80.1h-8.1L52.2,70.3z M43.7,64h7.1l-2.5-10l-1-6.8h-0.2l-1,6.8
			L43.7,64z"/>
		<path class="st1" d="M93.2,57.9l0.9-8.2h-0.3L91.5,57l-7,15.1h-2.6L74.4,57l-2.3-7.4h-0.4l1.2,8.3v22.3h-7.3V37h7.4l9,18.7
			l1.5,5.4h0.2l1.4-5.5L93.6,37h7.3v43.1h-7.8V57.9z"/>
		<path class="st1" d="M105.5,58.6c0-7.3,1.3-12.9,3.8-16.7c2.5-3.8,6.3-5.7,11.5-5.7c2.7,0,5,0.5,6.9,1.6c1.9,1,3.5,2.5,4.7,4.5
			c1.2,1.9,2.1,4.3,2.7,7.1c0.6,2.8,0.9,5.9,0.9,9.3c0,7.3-1.3,12.9-3.8,16.7c-2.6,3.8-6.4,5.7-11.4,5.7c-2.7,0-5-0.5-6.9-1.6
			c-1.9-1-3.5-2.5-4.7-4.5c-1.2-1.9-2.1-4.3-2.7-7.1C105.8,65.1,105.5,62,105.5,58.6z M113.6,58.6c0,2.2,0.1,4.2,0.4,6.1
			c0.2,1.9,0.7,3.5,1.2,4.8c0.6,1.4,1.3,2.4,2.2,3.2c0.9,0.8,2,1.2,3.3,1.2c2.4,0,4.2-1.2,5.4-3.6c1.2-2.4,1.8-6.3,1.8-11.6
			c0-2.1-0.1-4.1-0.4-5.9c-0.2-1.9-0.6-3.5-1.2-4.9c-0.6-1.4-1.3-2.5-2.2-3.3c-0.9-0.8-2-1.2-3.4-1.2
			C116,43.3,113.6,48.4,113.6,58.6z"/>
		<path class="st1" d="M140.5,37h21.5v7.1h-13.8v10.6h12.5v7.1h-12.5V73h14v7.1h-21.8V37z"/>
		<path class="st1" d="M191.6,47c0,1.1-0.1,2.1-0.3,3.2c-0.2,1-0.6,2-1.1,3c-0.5,0.9-1.1,1.7-1.9,2.4c-0.8,0.7-1.8,1.2-2.9,1.6v0.4
			c1,0.2,1.9,0.6,2.8,1.1c0.9,0.5,1.7,1.2,2.3,2c0.7,0.8,1.2,1.9,1.6,3.1c0.4,1.2,0.6,2.6,0.6,4.3c0,2.2-0.4,4.1-1.1,5.8
			c-0.8,1.6-1.8,2.9-3.1,4c-1.3,1-2.8,1.8-4.5,2.3s-3.6,0.7-5.5,0.7c-0.6,0-1.3,0-2.2,0c-0.9,0-1.9,0-2.9-0.1s-2.1-0.2-3.2-0.3
			c-1.1-0.1-2.1-0.3-3.1-0.6V37.3c1.4-0.2,3-0.5,5-0.6c2-0.2,4-0.3,5.9-0.3c1.8,0,3.5,0.1,5.2,0.4c1.7,0.3,3.1,0.8,4.4,1.6
			c1.3,0.8,2.2,1.9,3,3.2C191.3,43.1,191.6,44.8,191.6,47z M176.5,55.3c0.5,0,1,0,1.6-0.1c0.6-0.1,1.1-0.1,1.4-0.2
			c1.2-0.5,2.2-1.2,3-2.2c0.8-1,1.3-2.4,1.3-4c0-1.1-0.1-2-0.4-2.7c-0.3-0.7-0.7-1.3-1.2-1.8s-1.1-0.7-1.8-0.9
			c-0.7-0.2-1.4-0.3-2.2-0.3c-1.7,0-2.9,0.1-3.6,0.2v11.9H176.5z M178.6,74c1.7,0,3.1-0.6,4.2-1.7c1.1-1.1,1.7-2.7,1.7-4.9
			c0-1.4-0.2-2.4-0.6-3.2c-0.4-0.8-0.9-1.4-1.5-1.8c-0.6-0.4-1.3-0.7-2.1-0.8c-0.8-0.1-1.6-0.2-2.5-0.2h-3.1v12.3
			c0.3,0.1,0.9,0.2,1.7,0.3C177.2,74,178,74,178.6,74z"/>
		<path class="st1" d="M214.6,70.3h-10.2l-2.5,9.9h-7.7l12.5-43.4h6.1l12.6,43.4h-8.1L214.6,70.3z M206.1,64h7.1l-2.5-10l-1-6.8
			h-0.2l-1,6.8L206.1,64z"/>
		<path class="st1" d="M60.1,122.4H49.9l-2.5,9.9h-7.7l12.5-43.4h6.1l12.6,43.4h-8.1L60.1,122.4z M51.6,116.1h7.1l-2.5-10l-1-6.8H55
			l-1,6.8L51.6,116.1z"/>
		<path class="st1" d="M101.1,110l0.9-8.2h-0.3l-2.3,7.4l-7,15.1h-2.6l-7.4-15.2l-2.3-7.4h-0.4l1.2,8.3v22.3h-7.3V89.1H81l9,18.7
			l1.5,5.4h0.2l1.4-5.5l8.4-18.5h7.3v43.1h-7.8V110z"/>
		<path class="st1" d="M115.1,89.1h7.8v43.1h-7.8V89.1z"/>
		<path class="st1" d="M142.1,109.9h13.3V129c-1.5,1.4-3.3,2.5-5.3,3.1c-2,0.6-4.1,1-6.1,1c-2.4,0-4.6-0.4-6.6-1.3
			c-2-0.9-3.6-2.2-5-4c-1.4-1.8-2.4-4.1-3.2-7c-0.8-2.8-1.1-6.2-1.1-10.1c0-4.1,0.5-7.6,1.4-10.4c0.9-2.8,2.1-5.1,3.6-6.9
			c1.5-1.8,3.2-3.1,5.2-3.9c2-0.8,4.1-1.2,6.3-1.2c2,0,3.8,0.2,5.4,0.5c1.6,0.3,3,0.7,4,1.2l-1.6,6.7c-0.8-0.4-1.8-0.7-2.9-0.9
			c-1.1-0.2-2.4-0.4-4-0.4c-1.4,0-2.7,0.3-3.9,0.9c-1.2,0.6-2.2,1.5-3,2.7c-0.8,1.2-1.4,2.8-1.8,4.8c-0.4,2-0.6,4.3-0.6,7
			c0,5.2,0.8,9,2.4,11.5s3.7,3.7,6.2,3.7c0.8,0,1.6-0.1,2.4-0.4s1.4-0.6,2-1.2v-8.9l-7.1-1V109.9z"/>
		<path class="st1" d="M177.4,122.4h-10.2l-2.5,9.9H157l12.5-43.4h6.1l12.6,43.4H180L177.4,122.4z M168.9,116.1h7.1l-2.5-10l-1-6.8
			h-0.2l-1,6.8L168.9,116.1z"/>
		<path class="st1" d="M205.9,121.1c0-1.3-0.4-2.4-1.2-3.4c-0.8-0.9-1.8-1.8-2.9-2.6c-1.2-0.8-2.4-1.7-3.8-2.5
			c-1.4-0.9-2.6-1.9-3.8-3c-1.2-1.1-2.1-2.5-2.9-4.1c-0.8-1.6-1.2-3.5-1.2-5.7c0-2.1,0.3-3.9,1-5.3c0.6-1.5,1.5-2.6,2.6-3.6
			s2.4-1.6,3.9-2c1.5-0.4,3.1-0.6,4.9-0.6c2.1,0,4,0.2,5.8,0.6c1.8,0.4,3.3,1,4.5,1.7l-2.4,6.8c-0.7-0.5-1.7-0.9-3.1-1.4
			c-1.4-0.4-2.9-0.6-4.5-0.6c-1.6,0-2.8,0.3-3.7,1c-0.9,0.7-1.3,1.6-1.3,2.9c0,1.1,0.4,2.2,1.2,3c0.8,0.9,1.8,1.7,2.9,2.6
			c1.2,0.8,2.4,1.7,3.8,2.6c1.4,0.9,2.6,1.9,3.8,3.1s2.1,2.5,2.9,4.1s1.2,3.5,1.2,5.6c0,2.2-0.3,4.1-1,5.7c-0.6,1.6-1.5,2.9-2.7,4
			s-2.6,1.8-4.2,2.4c-1.6,0.5-3.5,0.8-5.5,0.8c-2.5,0-4.8-0.2-6.7-0.7c-1.9-0.5-3.4-1-4.4-1.7l2.5-7c0.8,0.5,1.9,1,3.4,1.5
			c1.4,0.5,3,0.7,4.6,0.7C203.8,125.9,205.9,124.3,205.9,121.1z"/>
	</g>
</g>
<g>
</g>
<g>
</g>
<g>
</g>
<g>
</g>
<g>
</g>
<g>
</g>
<g>
</g>
<g>
</g>
<g>
</g>
<g>
</g>
<g>
</g>
<g>
</g>
<g>
</g>
<g>
</g>
<g>
</g>
</svg>
