<?xml version="1.0" encoding="utf-8"?>
<!-- Generator: Adobe Illustrator 19.1.0, SVG Export Plug-In . SVG Version: 6.00 Build 0)  -->
<!DOCTYPE svg PUBLIC "-//W3C//DTD SVG 1.1//EN" "http://www.w3.org/Graphics/SVG/1.1/DTD/svg11.dtd">
<svg version="1.1" id="Layer_1" xmlns="http://www.w3.org/2000/svg" xmlns:xlink="http://www.w3.org/1999/xlink" x="0px" y="0px"
	 width="250px" height="205px" viewBox="0 0 250 205" style="enable-background:new 0 0 250 205;" xml:space="preserve">
<style type="text/css">
	.st0{fill:#323232;}
	.st1{fill:#F6F4EC;}
</style>
<g>
	<path class="st0" d="M0,0c0,0,0,97.9,0,168c0,47.6,35.7,32.3,59.1,26.9c23.4-5.4,49.2-15.7,66.6-15.7s42.6,10.3,66,15.7
		c23.4,5.4,58.3,20.6,58.3-26.9c0-70.1,0-168,0-168H0z"/>
	<g>
		<path class="st1" d="M50,70.3H39.9l-2.5,9.9h-7.7l12.4-43.4h6.1l12.5,43.4h-8.1L50,70.3z M41.5,64h7.1l-2.5-10l-1-6.8H45l-1,6.8
			L41.5,64z"/>
		<path class="st1" d="M90.8,57.9l0.9-8.2h-0.3L89.1,57l-7,15.1h-2.6L72.1,57l-2.3-7.4h-0.4l1.2,8.3v22.3h-7.3V37h7.4l9,18.7
			l1.5,5.4h0.2l1.4-5.5L91.2,37h7.3v43.1h-7.7V57.9z"/>
		<path class="st1" d="M103.1,58.6c0-7.3,1.2-12.9,3.7-16.7c2.5-3.8,6.3-5.7,11.4-5.7c2.7,0,4.9,0.5,6.9,1.6c1.9,1,3.5,2.5,4.7,4.5
			c1.2,1.9,2.1,4.3,2.7,7.1c0.6,2.8,0.9,5.9,0.9,9.3c0,7.3-1.3,12.9-3.8,16.7c-2.6,3.8-6.3,5.7-11.4,5.7c-2.7,0-5-0.5-6.9-1.6
			c-1.9-1-3.5-2.5-4.7-4.5c-1.2-1.9-2.1-4.3-2.7-7.1C103.4,65.1,103.1,62,103.1,58.6z M111.2,58.6c0,2.2,0.1,4.2,0.4,6.1
			c0.2,1.9,0.7,3.5,1.2,4.8c0.6,1.4,1.3,2.4,2.2,3.2c0.9,0.8,2,1.2,3.3,1.2c2.4,0,4.1-1.2,5.3-3.6c1.2-2.4,1.8-6.3,1.8-11.6
			c0-2.1-0.1-4.1-0.4-5.9c-0.2-1.9-0.6-3.5-1.2-4.9c-0.6-1.4-1.3-2.5-2.2-3.3c-0.9-0.8-2-1.2-3.4-1.2
			C113.5,43.3,111.2,48.4,111.2,58.6z"/>
		<path class="st1" d="M138,37h21.5v7.1h-13.7v10.6h12.4v7.1h-12.4V73h14v7.1H138V37z"/>
		<path class="st1" d="M188.9,47c0,1.1-0.1,2.1-0.3,3.2c-0.2,1-0.6,2-1.1,3c-0.5,0.9-1.1,1.7-1.9,2.4c-0.8,0.7-1.7,1.2-2.9,1.6v0.4
			c1,0.2,1.9,0.6,2.8,1.1c0.9,0.5,1.6,1.2,2.3,2c0.7,0.8,1.2,1.9,1.6,3.1c0.4,1.2,0.6,2.6,0.6,4.3c0,2.2-0.4,4.1-1.1,5.8
			c-0.8,1.6-1.8,2.9-3.1,4c-1.3,1-2.8,1.8-4.5,2.3c-1.7,0.5-3.5,0.7-5.5,0.7c-0.6,0-1.3,0-2.2,0c-0.9,0-1.9,0-2.9-0.1
			c-1-0.1-2.1-0.2-3.2-0.3c-1.1-0.1-2.1-0.3-3.1-0.6V37.3c1.3-0.2,3-0.5,5-0.6c2-0.2,4-0.3,5.9-0.3c1.8,0,3.5,0.1,5.2,0.4
			c1.7,0.3,3.1,0.8,4.4,1.6c1.2,0.8,2.2,1.9,3,3.2C188.5,43.1,188.9,44.8,188.9,47z M173.8,55.3c0.4,0,1,0,1.6-0.1
			c0.6-0.1,1.1-0.1,1.4-0.2c1.2-0.5,2.2-1.2,3-2.2c0.8-1,1.3-2.4,1.3-4c0-1.1-0.1-2-0.4-2.7s-0.7-1.3-1.2-1.8
			c-0.5-0.4-1.1-0.7-1.7-0.9c-0.7-0.2-1.4-0.3-2.2-0.3c-1.7,0-2.9,0.1-3.6,0.2v11.9H173.8z M175.9,74c1.7,0,3.1-0.6,4.2-1.7
			s1.7-2.7,1.7-4.9c0-1.4-0.2-2.4-0.6-3.2c-0.4-0.8-0.9-1.4-1.5-1.8c-0.6-0.4-1.3-0.7-2.1-0.8c-0.8-0.1-1.6-0.2-2.5-0.2h-3.1v12.3
			c0.3,0.1,0.9,0.2,1.7,0.3C174.6,74,175.3,74,175.9,74z"/>
		<path class="st1" d="M211.7,70.3h-10.1l-2.5,9.9h-7.7l12.4-43.4h6.1l12.5,43.4h-8.1L211.7,70.3z M203.3,64h7.1l-2.5-10l-1-6.8
			h-0.2l-1,6.8L203.3,64z"/>
		<path class="st1" d="M57.9,122.4H47.7l-2.5,9.9h-7.7L50,88.8h6.1l12.5,43.4h-8.1L57.9,122.4z M49.4,116.1h7.1l-2.5-10l-1-6.8h-0.2
			l-1,6.8L49.4,116.1z"/>
		<path class="st1" d="M98.7,110l0.9-8.2h-0.3l-2.3,7.4l-7,15.1h-2.6L80,109.1l-2.3-7.4h-0.4l1.2,8.3v22.3h-7.3V89.1h7.4l9,18.7
			l1.5,5.4h0.2l1.4-5.5l8.4-18.5h7.3v43.1h-7.7V110z"/>
		<path class="st1" d="M112.6,89.1h7.7v43.1h-7.7V89.1z"/>
		<path class="st1" d="M139.5,109.9h13.2V129c-1.5,1.4-3.3,2.5-5.3,3.1c-2,0.6-4,1-6,1c-2.4,0-4.6-0.4-6.6-1.3c-2-0.9-3.6-2.2-5-4
			c-1.4-1.8-2.4-4.1-3.2-7c-0.8-2.8-1.1-6.2-1.1-10.1c0-4.1,0.4-7.6,1.3-10.4c0.9-2.8,2.1-5.1,3.6-6.9c1.5-1.8,3.2-3.1,5.2-3.9
			s4.1-1.2,6.3-1.2c2,0,3.8,0.2,5.4,0.5c1.6,0.3,3,0.7,4,1.2l-1.6,6.7c-0.8-0.4-1.8-0.7-2.9-0.9c-1.1-0.2-2.4-0.4-4-0.4
			c-1.4,0-2.7,0.3-3.9,0.9c-1.2,0.6-2.1,1.5-2.9,2.7c-0.8,1.2-1.4,2.8-1.8,4.8c-0.4,2-0.6,4.3-0.6,7c0,5.2,0.8,9.1,2.4,11.5
			c1.6,2.5,3.6,3.7,6.2,3.7c0.8,0,1.6-0.1,2.4-0.4c0.8-0.2,1.4-0.6,2-1.2v-8.9l-7.1-1V109.9z"/>
		<path class="st1" d="M174.7,122.4h-10.1l-2.5,9.9h-7.7l12.4-43.4h6.1l12.5,43.4h-8.1L174.7,122.4z M166.2,116.1h7.1l-2.5-10
			l-1-6.8h-0.2l-1,6.8L166.2,116.1z"/>
		<path class="st1" d="M203.1,121.1c0-1.3-0.4-2.4-1.2-3.4c-0.8-0.9-1.7-1.8-2.9-2.6c-1.2-0.8-2.4-1.7-3.8-2.5
			c-1.4-0.9-2.6-1.9-3.8-3c-1.2-1.1-2.1-2.5-2.9-4.1c-0.8-1.6-1.2-3.5-1.2-5.7c0-2.1,0.3-3.9,1-5.3c0.6-1.5,1.5-2.6,2.6-3.6
			s2.4-1.6,3.9-2c1.5-0.4,3.1-0.6,4.8-0.6c2.1,0,4,0.2,5.8,0.6c1.8,0.4,3.3,1,4.5,1.7l-2.4,6.8c-0.7-0.5-1.7-0.9-3.1-1.4
			c-1.4-0.4-2.9-0.6-4.4-0.6c-1.6,0-2.8,0.3-3.7,1c-0.9,0.7-1.3,1.6-1.3,2.9c0,1.1,0.4,2.2,1.2,3c0.8,0.9,1.7,1.7,2.9,2.6
			c1.2,0.8,2.4,1.7,3.8,2.6c1.4,0.9,2.6,1.9,3.8,3.1s2.1,2.5,2.9,4.1c0.8,1.6,1.2,3.5,1.2,5.6c0,2.2-0.3,4.1-1,5.7s-1.5,2.9-2.7,4
			s-2.6,1.8-4.2,2.4s-3.5,0.8-5.5,0.8c-2.5,0-4.8-0.2-6.7-0.7c-1.9-0.5-3.4-1-4.4-1.7l2.5-7c0.8,0.5,1.9,1,3.4,1.5
			c1.4,0.5,3,0.7,4.6,0.7C201,125.9,203.1,124.3,203.1,121.1z"/>
	</g>
</g>
<g>
</g>
<g>
</g>
<g>
</g>
<g>
</g>
<g>
</g>
<g>
</g>
<g>
</g>
<g>
</g>
<g>
</g>
<g>
</g>
<g>
</g>
<g>
</g>
<g>
</g>
<g>
</g>
<g>
</g>
</svg>
