<?xml version="1.0" encoding="utf-8"?>
<!-- Generator: Adobe Illustrator 19.1.0, SVG Export Plug-In . SVG Version: 6.00 Build 0)  -->
<!DOCTYPE svg PUBLIC "-//W3C//DTD SVG 1.1//EN" "http://www.w3.org/Graphics/SVG/1.1/DTD/svg11.dtd">
<svg version="1.1" id="Layer_1" xmlns="http://www.w3.org/2000/svg" xmlns:xlink="http://www.w3.org/1999/xlink" x="0px" y="0px"
	 width="300px" height="300px" viewBox="0 0 300 300" style="enable-background:new 0 0 300 300;" xml:space="preserve">
<style type="text/css">
	.st0{fill:#AAA592;}
	.st1{fill:#F6F4EC;}
	.st2{fill:#7E7A6C;}
</style>
<path class="st0" d="M184.1,262.6c-0.8,0-1.6,0-2.4-0.1c-2.8-0.2-5.6-0.3-8.3-0.5c-14.1-0.7-27.5-1.3-38.2-9.5
	c-11.8-9-18.1-25.7-20-52.4c-1.2-18.3-8.7-18.3-12.3-18.3c-5.7,0-13.1,2.6-20.8,5.3c-8.8,3.1-17.9,6.3-26.4,6.3
	c-15.3,0-24.3-10.4-27.4-31.9c-7-48.4,16.8-59.2,35.9-67.9c10.2-4.6,19-8.6,21.4-17.6c6.7-24.2,32.3-38.6,68.4-38.6
	c27.9,0,62,9.7,70.1,27.7c5,11,4.4,22.1,3.8,32.8c-1,19-2,37,27.8,55.9c14.9,9.4,20.1,23.2,15.3,40c-4.5,15.4-17.6,32.5-36.1,46.8
	C217.2,254.3,198.2,262.6,184.1,262.6C184.1,262.6,184.1,262.6,184.1,262.6z"/>
<path class="st1" d="M89.6,77.1C81.5,106.4,22,89.3,32.3,161c10.3,71.7,82.8-22.5,86.9,38.9c4.1,61.4,32.1,56.5,62.8,58.6
	c38.6,2.7,120.7-70.3,71.7-101.4c-49-31-20-61.4-33.1-90.4C207.5,37.8,104.1,24.7,89.6,77.1z"/>
<circle class="st0" cx="170.1" cy="92.2" r="17.2"/>
<g>
	<circle class="st0" cx="238.1" cy="185.2" r="17.2"/>
	<circle class="st2" cx="237.1" cy="175.2" r="4"/>
	<circle class="st2" cx="241.1" cy="183.2" r="4"/>
	<circle class="st2" cx="248.1" cy="189.2" r="4"/>
	<circle class="st2" cx="238.1" cy="195.2" r="4"/>
	<circle class="st2" cx="229.1" cy="191.2" r="4"/>
	<circle class="st2" cx="230.1" cy="182.2" r="4"/>
</g>
<g>
	<ellipse class="st0" cx="147.2" cy="137.5" rx="2.8" ry="4.9"/>
	<ellipse class="st0" cx="153.6" cy="154.4" rx="2.2" ry="3.8"/>
	
		<ellipse transform="matrix(0.9658 -0.2592 0.2592 0.9658 -29.8358 44.7144)" class="st0" cx="154.6" cy="135.5" rx="2.2" ry="3.9"/>
	
		<ellipse transform="matrix(0.9658 -0.2592 0.2592 0.9658 -33.5518 46.5209)" class="st0" cx="159.6" cy="150.5" rx="2.2" ry="3.9"/>
	
		<ellipse transform="matrix(0.7707 -0.6372 0.6372 0.7707 -64.1818 128.6295)" class="st0" cx="146.6" cy="153.5" rx="2.2" ry="3.9"/>
	
		<ellipse transform="matrix(0.5976 -0.8018 0.8018 0.5976 -59.266 172.7301)" class="st0" cx="142.4" cy="145.4" rx="3.2" ry="5.5"/>
	
		<ellipse transform="matrix(0.8807 0.4736 -0.4736 0.8807 85.0445 -60.0854)" class="st0" cx="161.8" cy="138.8" rx="2.8" ry="4.9"/>
	<ellipse transform="matrix(0.748 0.6637 -0.6637 0.748 135.1805 -65.0183)" class="st0" cx="153.2" cy="145.5" rx="2.8" ry="4.9"/>
</g>
</svg>
