<?xml version="1.0" encoding="utf-8"?>
<!-- Generator: Adobe Illustrator 19.1.0, SVG Export Plug-In . SVG Version: 6.00 Build 0)  -->
<!DOCTYPE svg PUBLIC "-//W3C//DTD SVG 1.1//EN" "http://www.w3.org/Graphics/SVG/1.1/DTD/svg11.dtd">
<svg version="1.1" id="Layer_1" xmlns="http://www.w3.org/2000/svg" xmlns:xlink="http://www.w3.org/1999/xlink" x="0px" y="0px"
	 width="256px" height="256px" viewBox="0 0 256 256" style="enable-background:new 0 0 256 256;" xml:space="preserve">
<style type="text/css">
	.st0{fill:#999999;}
</style>
<g>
	<path class="st0" d="M200.3,32c-23.5,0-42.5,19-42.5,42.5c0,6.1,1.3,11.9,3.6,17.1c-14.2,18-29.9,25.4-40.6,28.4
		c-2.9-10.5-12.5-18.3-24-18.3c-1.6,0-3.3,0.2-4.8,0.5c-5.7-9.3-15.9-15.5-27.6-15.5c-17.9,0-32.4,14.5-32.4,32.4
		c0,6,1.7,11.6,4.5,16.5C23,139.5,13.2,152,13.2,166.7c0,17.9,14.5,32.4,32.4,32.4c0.4,0,0.8,0,1.1-0.1
		c3.2,10.1,12.6,17.5,23.8,17.5c6.8,0,12.9-2.7,17.4-7.1c3.9,8.6,12.6,14.6,22.6,14.6c13.8,0,24.9-11.1,24.9-24.9c0-0.3,0-0.6,0-0.9
		c14.2-3.4,24.8-16.2,24.8-31.5c0-17.9-14.5-32.4-32.4-32.4c-0.4,0-0.9,0-1.3,0c6.7-8.8,20.1-21.8,44-29.5
		c7.7,7.5,18.2,12.2,29.8,12.2c23.5,0,42.5-19,42.5-42.5C242.8,51,223.8,32,200.3,32z"/>
</g>
</svg>
