<?xml version="1.0" encoding="utf-8"?>
<!-- Generator: Adobe Illustrator 19.1.0, SVG Export Plug-In . SVG Version: 6.00 Build 0)  -->
<!DOCTYPE svg PUBLIC "-//W3C//DTD SVG 1.1//EN" "http://www.w3.org/Graphics/SVG/1.1/DTD/svg11.dtd">
<svg version="1.1" id="Layer_1" xmlns="http://www.w3.org/2000/svg" xmlns:xlink="http://www.w3.org/1999/xlink" x="0px" y="0px"
	 width="300px" height="300px" viewBox="0 0 300 300" style="enable-background:new 0 0 300 300;" xml:space="preserve">
<style type="text/css">
	.st0{fill:#AAA592;}
	.st1{fill:#F6F4EC;}
	.st2{fill:#7E7A6C;}
</style>
<path class="st0" d="M244.8,256.2c-8.4,0-16.7-6.8-20.5-16.8c-2.2-5.7-5.1-9.1-7.7-9.1c-2.7,0-6.1,3.2-9.1,8.6
	c-4.8,8.6-17.2,16.2-26.5,16.2c-4.2,0-7.7-1.6-9.7-4.5c-2.7-3.9-2.6-9.8,0.3-17.4c4.5-11.8,13.7-23.8,22.6-35.3
	c10-13.1,20.4-26.6,17.6-33c-7.4-17.5-24.3-46.9-53.6-46.9c-8.5,0-17.6,2.5-27.2,7.3c-8.6,4.4-12.1,17.9-15.8,32.1
	c-4.2,16.4-9,35-23.3,44.4c-7.7,5.1-13.7,7.5-18.4,7.5c-4.3,0-6.9-2-8.2-3.7c-3.4-4.3-3.8-12.1-1.1-23.7c0.2-0.9,0.4-1.8,0.6-2.7
	c0.9-3.9,2.2-9.1,1.6-10.5c-0.2-0.1-0.6-0.2-1.5-0.2c-2.8,0-7.7,1.2-14.4,3.6c-5.5,1.9-10.3,2.9-14.5,2.9c-9.7,0-12.6-5.3-13.4-7.6
	c-2.5-7.3,3-17.2,14.8-26.5c9.5-7.4,29.8-17,51.2-27.1c25.9-12.2,61.4-28.9,64.4-37.6c5.2-15,16.7-23.6,31.7-23.6
	c13.2,0,26.8,7.2,34.6,18.3c7.6,10.8,9.1,24,4.4,37.2c-5.3,14.8,6.1,35.3,18.3,57.1c14.2,25.5,28.9,51.8,20.6,75.2
	C259.2,250.5,252.7,256.2,244.8,256.2C244.8,256.2,244.8,256.2,244.8,256.2z"/>
<path class="st1" d="M156.9,77.6c-6,17.5-94.7,49.1-117,66.6c-22.3,17.5-16.7,33.5,9.2,24.3c25.9-9.2,22.5-0.9,18.9,14.5
	c-3.6,15.4-3.5,32.3,21.7,15.6c25.2-16.6,18.3-66.1,39.5-76.8c49.6-25.2,75.9,16.9,86.3,41.6c6.4,15.1-30.1,45.1-40.1,71.4
	c-10.1,26.3,20.7,16.5,28.6,2.3c7.9-14.2,18-14.5,24,1c6,15.5,23.7,21.7,30.9,1.2c14.7-41.5-51.3-97.8-38.9-132.4
	C235.9,62.8,171.3,35.6,156.9,77.6z"/>
<circle class="st0" cx="90" cy="147.7" r="11.6"/>
<g>
	<circle class="st0" cx="187" cy="89.7" r="17.4"/>
	<circle class="st2" cx="186" cy="79.7" r="4"/>
	<circle class="st2" cx="190" cy="87.7" r="4"/>
	<circle class="st2" cx="197.1" cy="93.8" r="4"/>
	<circle class="st2" cx="187" cy="99.8" r="4"/>
	<circle class="st2" cx="177.9" cy="95.8" r="4"/>
	<circle class="st2" cx="178.9" cy="86.7" r="4"/>
</g>
<g>
	<ellipse class="st0" cx="222.1" cy="199.1" rx="2.8" ry="4.9"/>
	<ellipse class="st0" cx="228.5" cy="216" rx="2.2" ry="3.8"/>
	
		<ellipse transform="matrix(0.9658 -0.2592 0.2592 0.9658 -43.2328 66.2182)" class="st0" cx="229.5" cy="197.1" rx="2.2" ry="3.9"/>
	
		<ellipse transform="matrix(0.9658 -0.2592 0.2592 0.9658 -46.9493 68.0264)" class="st0" cx="234.5" cy="212.1" rx="2.2" ry="3.9"/>
	
		<ellipse transform="matrix(0.7708 -0.6371 0.6371 0.7708 -86.2477 190.4273)" class="st0" cx="221.5" cy="215.1" rx="2.2" ry="3.9"/>
	<ellipse transform="matrix(0.5975 -0.8019 0.8019 0.5975 -78.5032 257.5952)" class="st0" cx="217.3" cy="207" rx="3.2" ry="5.5"/>
	
		<ellipse transform="matrix(0.8808 0.4736 -0.4736 0.8808 123.1237 -88.2038)" class="st0" cx="236.7" cy="200.4" rx="2.8" ry="4.9"/>
	<ellipse transform="matrix(0.748 0.6637 -0.6637 0.748 194.9328 -99.2075)" class="st0" cx="228.1" cy="207.1" rx="2.8" ry="4.9"/>
</g>
</svg>
