<?xml version="1.0" encoding="utf-8"?>
<!-- Generator: Adobe Illustrator 19.1.0, SVG Export Plug-In . SVG Version: 6.00 Build 0)  -->
<!DOCTYPE svg PUBLIC "-//W3C//DTD SVG 1.1//EN" "http://www.w3.org/Graphics/SVG/1.1/DTD/svg11.dtd">
<svg version="1.1" id="Layer_1" xmlns="http://www.w3.org/2000/svg" xmlns:xlink="http://www.w3.org/1999/xlink" x="0px" y="0px"
	 width="256px" height="256px" viewBox="0 0 256 256" style="enable-background:new 0 0 256 256;" xml:space="preserve">
<style type="text/css">
	.st0{fill:#999999;}
</style>
<g>
	<path class="st0" d="M217.2,217.2c-6.2,0-11.2-5-11.2-11.2c0-85-69.1-154.1-154.1-154.1c-6.2,0-11.2-5-11.2-11.2
		c0-6.2,5-11.2,11.2-11.2c97.3,0,176.5,79.2,176.5,176.5C228.4,212.2,223.4,217.2,217.2,217.2z"/>
	<path class="st0" d="M176.1,217.2c-6.2,0-11.2-5-11.2-11.2c0-62.3-50.7-113-113-113c-6.2,0-11.2-5-11.2-11.2
		c0-6.2,5-11.2,11.2-11.2c74.6,0,135.4,60.7,135.4,135.4C187.3,212.2,182.2,217.2,176.1,217.2z"/>
	<path class="st0" d="M134.9,217.2c-6.2,0-11.2-5-11.2-11.2c0-39.6-32.2-71.8-71.8-71.8c-6.2,0-11.2-5-11.2-11.2
		c0-6.2,5-11.2,11.2-11.2c52,0,94.2,42.3,94.2,94.2C146.1,212.2,141.1,217.2,134.9,217.2z"/>
	<path class="st0" d="M91.1,194.7c0,17.6-14.2,31.8-31.8,31.8c-17.5,0-31.8-14.2-31.8-31.8c0-17.5,14.2-31.8,31.8-31.8
		C76.9,163,91.1,177.2,91.1,194.7z"/>
</g>
</svg>
